<svg width="135" height="40" viewBox="0 0 135 40" fill="none" xmlns="http://www.w3.org/2000/svg">
<path d="M52.6035 8.29293C51.9099 7.75947 51.0411 7.43178 50.096 7.43178C47.8324 7.43178 45.988 9.27601 45.988 11.5394C45.988 13.8028 47.8324 15.647 50.096 15.647C52.3596 15.647 54.204 13.8028 54.204 11.5394V4.52826H52.6035V8.29293ZM50.096 14.039C48.7165 14.039 47.5962 12.9187 47.5962 11.5394C47.5962 10.16 48.7165 9.03977 50.096 9.03977C51.4755 9.03977 52.5959 10.16 52.5959 11.5394C52.5959 12.9187 51.4755 14.039 50.096 14.039Z" fill="#192A67"/>
<path d="M67.9608 7.43178C67.0157 7.43178 66.1468 7.75185 65.4533 8.29293V4.52826H63.8528V11.5394C63.8528 13.8028 65.6972 15.647 67.9608 15.647C70.2243 15.647 72.0687 13.8028 72.0687 11.5394C72.0687 9.27601 70.2243 7.43178 67.9608 7.43178ZM67.9608 14.039C66.5813 14.039 65.4609 12.9187 65.4609 11.5394C65.4609 10.16 66.5813 9.03977 67.9608 9.03977C69.3402 9.03977 70.4606 10.16 70.4606 11.5394C70.4606 12.9187 69.3402 14.039 67.9608 14.039Z" fill="#192A67"/>
<path d="M92.4334 7.43188C90.1698 7.43188 88.3254 9.27612 88.3254 11.5395C88.3254 13.8029 90.1698 15.6471 92.4334 15.6471C94.6969 15.6471 96.5413 13.8029 96.5413 11.5395C96.5413 9.27612 94.6969 7.43188 92.4334 7.43188ZM92.4334 14.0391C91.0539 14.0391 89.9335 12.9189 89.9335 11.5395C89.9335 10.1601 91.0539 9.03987 92.4334 9.03987C93.8128 9.03987 94.9332 10.1601 94.9332 11.5395C94.9332 12.9189 93.8128 14.0391 92.4334 14.0391Z" fill="#192A67"/>
<path d="M59.0284 7.43188C56.7648 7.43188 54.9204 9.27612 54.9204 11.5395C54.9204 13.8029 56.7648 15.6471 59.0284 15.6471C59.9735 15.6471 60.8347 15.327 61.5282 14.7936V15.548H63.1287V11.5395C63.1287 9.27612 61.2843 7.43188 59.0208 7.43188H59.0284ZM59.0284 14.0391C57.6489 14.0391 56.5285 12.9189 56.5285 11.5395C56.5285 10.1601 57.6489 9.03987 59.0284 9.03987C60.4079 9.03987 61.5282 10.1601 61.5282 11.5395C61.5282 12.9189 60.4079 14.0391 59.0284 14.0391Z" fill="#192A67"/>
<path d="M83.501 14.039C82.1215 14.039 81.0011 12.9188 81.0011 11.5394C81.0011 10.16 82.1215 9.03979 83.501 9.03979V7.43943C83.4171 7.43943 83.3333 7.43943 83.2494 7.44705C82.8608 7.44705 82.5483 7.12698 82.5483 6.74594C82.5483 6.3649 82.8608 6.04482 83.2494 6.04482C83.6381 6.04482 83.9506 6.35728 83.9506 6.74594H85.5511C85.5511 5.47326 84.5146 4.44446 83.2494 4.44446C81.9843 4.44446 80.9478 5.48089 80.9478 6.74594C80.9478 7.22605 81.1002 7.67567 81.3517 8.04909C80.178 8.77307 79.393 10.0686 79.393 11.547C79.393 12.9264 78.2726 14.0467 76.8931 14.0467C75.5136 14.0467 74.3933 12.9264 74.3933 11.547C74.3933 10.1677 75.5136 9.04741 76.8931 9.04741V7.44705C76.8093 7.44705 76.7255 7.44705 76.6416 7.45467C76.2529 7.45467 75.9404 7.1346 75.9404 6.75356C75.9404 6.37252 76.2529 6.05244 76.6416 6.05244C77.0303 6.05244 77.3428 6.3649 77.3428 6.75356H78.9433C78.9433 5.48088 77.9068 4.45208 76.6416 4.45208C75.3765 4.45208 74.3399 5.48851 74.3399 6.75356C74.3399 7.23367 74.4924 7.68329 74.7439 8.05671C73.5702 8.78069 72.7852 10.0762 72.7852 11.5547C72.7852 13.818 74.6296 15.6623 76.8931 15.6623C78.2498 15.6623 79.4463 15.0069 80.2009 13.9933C80.9478 15.0069 82.1519 15.6623 83.5086 15.6623C85.7722 15.6623 87.6166 13.818 87.6166 11.5547H86.016C86.016 12.934 84.8957 14.0543 83.5162 14.0543L83.501 14.039Z" fill="#192A67"/>
<path d="M95.8096 29.9695C95.8096 29.116 95.9697 28.3387 96.2898 27.6299C96.5946 26.9365 97.0138 26.3344 97.5473 25.8391C98.0808 25.359 98.6829 24.9855 99.3765 24.7264C100.047 24.4749 100.779 24.3378 101.518 24.3378C102.257 24.3378 102.974 24.4826 103.66 24.7264C104.33 24.9932 104.955 25.3666 105.489 25.8391C106 26.3344 106.426 26.9365 106.746 27.6299C107.067 28.3387 107.227 29.116 107.227 29.9695C107.227 30.8231 107.067 31.6156 106.746 32.2939C106.426 32.9874 106 33.5513 105.489 34.0467C104.955 34.5268 104.338 34.9002 103.66 35.1669C102.966 35.4184 102.257 35.5556 101.518 35.5556C100.779 35.5556 100.047 35.4108 99.3765 35.1669C98.6829 34.9002 98.0808 34.5268 97.5473 34.0467C97.0138 33.5513 96.587 32.9797 96.2898 32.2939C95.9697 31.6232 95.8096 30.8383 95.8096 29.9695ZM101.518 34.1152C102.029 34.1152 102.532 34.0085 103.027 33.8104C103.484 33.597 103.911 33.3151 104.285 32.9569C104.635 32.6063 104.925 32.1567 105.154 31.6461C105.367 31.1508 105.474 30.5792 105.474 29.9619C105.474 29.3446 105.352 28.7578 105.123 28.2244C104.872 27.729 104.574 27.287 104.216 26.9136C103.827 26.5554 103.401 26.2963 102.943 26.0829C102.463 25.8848 101.983 25.7781 101.526 25.7781C101.03 25.7781 100.565 25.8848 100.108 26.0829C99.628 26.2963 99.2012 26.5783 98.8354 26.9365C98.4467 27.3251 98.1418 27.7671 97.9284 28.2625C97.6769 28.7959 97.5778 29.3599 97.5778 29.9619C97.5778 30.564 97.6845 31.1508 97.8979 31.6461C98.1113 32.1567 98.3933 32.6063 98.7668 32.9569C99.1174 33.3151 99.5442 33.597 100.04 33.8104C100.497 34.0085 101 34.1152 101.526 34.1152H101.518Z" fill="#212121" stroke="#212121" stroke-width="0.4"/>
<path d="M93.7823 24.9549V35.5478H91.9379V24.9549H93.7823Z" fill="#212121" stroke="#212121" stroke-width="0.4"/>
<path d="M93.7823 21.1293H91.9379V23.1946H93.7823V21.1293Z" fill="#212121" stroke="#212121" stroke-width="0.4"/>
<path d="M87.2736 26.0752C86.3362 25.3512 85.2234 24.9702 84.0421 24.9702C81.1231 24.9702 78.7528 27.3403 78.7528 30.259C78.7528 33.1778 81.1231 35.5479 84.0421 35.5479C86.9611 35.5479 89.3314 33.1778 89.3314 30.259V21.1293H87.4946V26.2429L87.2736 26.0752ZM84.0421 33.7036C82.1444 33.7036 80.5972 32.1566 80.5972 30.259C80.5972 28.3615 82.1444 26.8144 84.0421 26.8144C85.9399 26.8144 87.487 28.3615 87.487 30.259C87.487 32.1566 85.9399 33.7036 84.0421 33.7036Z" fill="#212121" stroke="#212121" stroke-width="0.4"/>
<path d="M75.2774 33.7799C74.782 34.4048 74.1875 34.8468 73.5244 35.144C72.8385 35.4031 72.1221 35.5479 71.3523 35.5479C70.6359 35.5479 69.988 35.4336 69.4164 35.2126C68.8296 34.9916 68.3494 34.6791 67.9455 34.2905C67.5187 33.8866 67.2062 33.3836 66.9852 32.8349C66.7642 32.2786 66.6498 31.6765 66.6498 30.9907V24.6121H68.4942V30.4877C68.4942 32.8501 69.5994 34.0237 71.8325 34.0237C72.1983 34.0237 72.587 33.9475 72.9909 33.818C73.3567 33.6732 73.7302 33.4674 74.0579 33.2083C74.3704 32.9492 74.6295 32.5986 74.8506 32.1947C75.0563 31.7908 75.1859 31.326 75.2164 30.7773V24.6044H77.0608V35.1668H75.3993L75.2697 33.7646L75.2774 33.7799Z" fill="#212121" stroke="#212121" stroke-width="0.4"/>
<path d="M61.9245 24.9856H64.6149V26.4945H61.9245V32.6902C61.9245 33.0941 62.0541 33.4294 62.3132 33.6656C62.5495 33.9019 62.9229 34.0314 63.4336 34.0314H64.7978V35.5403H62.5647C62.2294 35.5403 61.9169 35.4641 61.6273 35.3346C61.3148 35.1898 61.0557 34.9993 60.8347 34.7783C60.5984 34.542 60.4079 34.2601 60.2859 33.9476C60.1411 33.6123 60.0801 33.2846 60.0801 32.9188V26.4869H57.7175V24.9779H60.0801V21.2209H61.9245V24.9779V24.9856Z" fill="#212121" stroke="#212121" stroke-width="0.4"/>
<path d="M46.7807 32.1186C47.0931 32.4158 47.4666 32.6901 47.8705 32.9111C48.2745 33.1474 48.7013 33.3379 49.1586 33.5208C49.6006 33.6885 50.0426 33.818 50.5228 33.9095C50.9648 33.9857 51.4069 34.039 51.8337 34.039C52.794 34.0238 53.5866 33.818 54.1964 33.4293C54.7832 33.0254 55.0804 32.3929 55.0804 31.547C55.0804 31.1965 55.0042 30.884 54.8594 30.5868C54.6917 30.3277 54.4707 30.0686 54.1964 29.8476C53.8991 29.6418 53.5333 29.4589 53.1293 29.276C52.7025 29.1312 52.2224 28.9636 51.7118 28.8112C50.7743 28.552 49.9588 28.2777 49.2957 27.9805C48.5946 27.7061 48.0382 27.3937 47.5962 27.0203C47.1312 26.6697 46.8035 26.2658 46.5977 25.8238C46.3767 25.3818 46.2624 24.8636 46.2624 24.2768C46.2624 23.6519 46.392 23.0956 46.6663 22.6154C46.9255 22.1353 47.276 21.7467 47.7562 21.419C48.1982 21.1218 48.7546 20.8855 49.3796 20.7179C49.9893 20.5731 50.6524 20.4816 51.3535 20.4816C52.2224 20.4816 53.0912 20.6264 53.9525 20.9236C54.7984 21.2361 55.614 21.6781 56.3685 22.2497L55.6292 23.5757C55.3548 23.3699 55.0576 23.1718 54.7222 22.9889C54.3869 22.806 54.0363 22.6383 53.6857 22.4935C53.3123 22.3487 52.9464 22.2344 52.5806 22.143C52.1919 22.0668 51.8261 22.0134 51.4755 21.9982C51.0487 21.9982 50.6447 22.0134 50.256 22.0896C49.8521 22.1658 49.4787 22.2954 49.1662 22.4554C48.8308 22.6383 48.5793 22.8822 48.3888 23.1565C48.183 23.4537 48.0915 23.8195 48.0915 24.2234C48.0915 24.6273 48.1449 24.9627 48.2745 25.2218C48.3888 25.519 48.5869 25.7552 48.8842 25.961C49.1433 26.182 49.5091 26.3877 49.9512 26.5478C50.3932 26.7307 50.9267 26.9136 51.5974 27.1041C52.4129 27.3632 53.1446 27.5994 53.8153 27.8586C54.4631 28.1329 55.0119 28.4301 55.492 28.7654C55.9341 29.116 56.2846 29.5046 56.5438 29.9314C56.78 30.3734 56.9096 30.8688 56.9096 31.4251C56.9096 32.1643 56.78 32.8121 56.5209 33.3227C56.2465 33.8409 55.8731 34.26 55.4158 34.5953C54.9356 34.9306 54.3793 35.1669 53.7391 35.3345C53.076 35.4793 52.3748 35.5555 51.5974 35.5555C50.599 35.5555 49.6235 35.3879 48.6479 35.0602C47.6495 34.7096 46.7502 34.2295 45.9728 33.6046L46.7654 32.1262L46.7807 32.1186Z" fill="#212121" stroke="#212121" stroke-width="0.4"/>
<path d="M0 10V30L17.3215 40L34.6431 30V10L17.3215 0L0 10Z" fill="#4B6CCB"/>
<path d="M5.43805 26.8596V13.1404L17.3215 6.28076L29.205 13.1404V26.8596L17.3215 33.7192L5.43805 26.8596Z" fill="#194BAF"/>
<path d="M17.3215 33.7193L29.205 26.8597L17.3215 20.9025L5.43805 26.8597L17.3215 33.7193Z" fill="#191F44"/>
<path d="M0 10L5.43805 13.1404L17.3215 6.28077L29.205 13.1404L34.6431 10L17.3215 0L0 10Z" fill="#1E57DC"/>
<path d="M17.3215 33.7192V40L34.6431 30V10L29.205 13.1404V26.8596L17.3215 33.7192Z" fill="#172A67"/>
<path d="M29.205 26.8596L17.3215 20.9025V6.28076L29.205 13.1404V26.8596Z" fill="#193F8E"/>
<path d="M0 10V30L17.3215 40L34.6431 30V10L17.3215 0L0 10Z" fill="url(#paint0_linear_317_83)"/>
<path d="M23.4752 21.5587C23.4752 23.0537 22.2582 24.2707 20.763 24.2707C19.2679 24.2707 18.0509 23.0537 18.0509 21.5587C18.0509 20.0638 19.2679 18.8468 20.763 18.8468V17.3883C20.6719 17.3883 20.5853 17.3974 20.4987 17.402C20.0383 17.3974 19.6645 17.0237 19.6645 16.5633C19.6645 16.103 20.0383 15.7292 20.4987 15.7292C20.9591 15.7292 21.3328 16.103 21.3328 16.5633H22.7915C22.7915 15.2962 21.7613 14.2707 20.4987 14.2707C19.236 14.2707 18.2058 15.3008 18.2058 16.5633C18.2058 17.0875 18.3836 17.566 18.6799 17.9535C17.4355 18.6736 16.5922 20.0227 16.5922 21.5633C16.5922 23.1039 15.3751 24.2752 13.88 24.2752C12.3849 24.2752 11.1678 23.0583 11.1678 21.5633C11.1678 20.0683 12.3849 18.8514 13.88 18.8514V17.3928C13.7888 17.3928 13.7022 17.402 13.6156 17.4065C13.1552 17.402 12.7815 17.0282 12.7815 16.5679C12.7815 16.1075 13.1552 15.7338 13.6156 15.7338C14.076 15.7338 14.4498 16.1075 14.4498 16.5679H15.9085C15.9085 15.3008 14.8783 14.2752 13.6156 14.2752C12.353 14.2752 11.3228 15.3053 11.3228 16.5679C11.3228 17.092 11.5006 17.5706 11.7969 17.958C10.5525 18.6782 9.70917 20.0273 9.70917 21.5679C9.70917 23.8696 11.5826 25.7383 13.88 25.7383C15.3068 25.7383 16.5694 25.0182 17.3215 23.9197C18.0736 25.0182 19.3363 25.7383 20.763 25.7383C23.065 25.7383 24.9339 23.865 24.9339 21.5679H23.4752V21.5587Z" fill="white"/>
<path d="M128.553 35.2723H124.29V22.7276H128.622C132.365 22.7276 134.626 25.0754 134.634 28.9826C134.626 32.9072 132.365 35.2723 128.553 35.2723ZM126.543 33.3144H128.431C131.056 33.3231 132.382 31.8763 132.382 28.9826C132.382 26.1064 131.056 24.6769 128.501 24.6855H126.543V33.3144Z" fill="#212121"/>
<path d="M117.87 35.4456C115.193 35.4456 113.279 33.9901 113.227 31.8763H115.496C115.557 32.8812 116.562 33.5483 117.87 33.5396C119.248 33.5483 120.244 32.7859 120.244 31.6683C120.244 30.5421 119.274 29.7364 117.645 29.7277H116.519V27.995H117.645C118.979 27.995 119.906 27.2499 119.897 26.1583C119.906 25.1014 119.109 24.391 117.888 24.391C116.709 24.391 115.696 25.0494 115.652 26.1064H113.486C113.538 24.0011 115.453 22.5543 117.905 22.5543C120.452 22.5543 122.098 24.1138 122.081 26.0371C122.098 27.4405 121.162 28.4542 119.794 28.7401V28.844C121.561 29.0779 122.566 30.2129 122.548 31.7896C122.566 33.9122 120.582 35.4456 117.87 35.4456Z" fill="#212121"/>
<defs>
<linearGradient id="paint0_linear_317_83" x1="0" y1="20" x2="34.6431" y2="20" gradientUnits="userSpaceOnUse">
<stop stop-color="#27C4D5" stop-opacity="0.2"/>
<stop offset="0.5" stop-color="#1A95D5" stop-opacity="0"/>
</linearGradient>
</defs>
</svg>
